<svg id="Camada_1" data-name="Camada 1" xmlns="http://www.w3.org/2000/svg" viewBox="0 0 417.55 397.73"><defs><style>.cls-1{fill:#ffab74;}.cls-1,.cls-2{stroke:#fff;stroke-miterlimit:10;}.cls-2{fill:#fff;stroke-width:8px;}</style></defs><title>ArrowLeft</title><path class="cls-1" d="M184,268.8c0-5,2.63-9.62,6.89-13a27.5,27.5,0,0,1,4.51-6l42.48-42.64c8.85-8.88,22-10.19,29.29-2.91A16.91,16.91,0,0,1,271.85,217,24.9,24.9,0,0,1,264.27,235l-15,15h62.26C325,250.07,336,258.5,336,268.8s-11,18.72-24.44,18.72H250l14.32,14.38c8.85,8.88,10.15,22.11,2.9,29.39s-20.44,6-29.29-2.91L195.4,285.74a28.69,28.69,0,0,1-2-2.19C187.71,280.12,184,274.77,184,268.8Z" transform="translate(-51.82 -29.63)"/><line class="cls-2" x1="2.16" y1="190.37" x2="293.19" y2="3.37"/><line class="cls-2" x1="223.96" y1="394.37" x2="415.39" y2="271.37"/></svg>